<svg width="362" height="454" viewBox="0 0 362 454" fill="none" xmlns="http://www.w3.org/2000/svg">
<path d="M33.6426 392.625C35.4004 392.69 36.8978 393.341 38.1348 394.578C39.3717 395.75 40.0228 397.215 40.0879 398.973V446.824C39.6973 450.73 37.5488 452.846 33.6426 453.172C31.8197 453.172 30.2246 452.586 28.8574 451.414C27.5553 450.177 26.9043 448.647 26.9043 446.824V398.973C26.9694 397.15 27.653 395.652 28.9551 394.48C30.2572 393.243 31.8197 392.625 33.6426 392.625ZM50.3418 409.812C54.7038 406.883 60.5957 403.921 68.0176 400.926L84.0332 394.09C84.7493 393.764 85.5306 393.569 86.377 393.504C88.1999 393.374 89.7624 393.927 91.0645 395.164C92.3665 396.336 93.0176 397.866 93.0176 399.754C93.0176 401.902 92.5618 403.497 91.6504 404.539C90.804 405.516 89.6973 406.329 88.3301 406.98L74.6582 412.156C71.9889 413.198 69.4499 414.24 67.041 415.281C64.6973 416.258 62.5488 417.397 60.5957 418.699C58.6426 419.871 57.6009 421.206 57.4707 422.703C57.6009 424.135 58.6426 425.47 60.5957 426.707C62.5488 428.009 64.6973 429.181 67.041 430.223C69.4499 431.199 71.9889 432.208 74.6582 433.25L89.8926 438.816C91.2598 439.467 92.3665 440.314 93.2129 441.355C94.1243 442.332 94.5801 443.895 94.5801 446.043C94.5801 447.931 93.929 449.493 92.627 450.73C91.3249 451.902 89.7624 452.423 87.9395 452.293C87.0931 452.228 86.3118 452.033 85.5957 451.707L68.0176 444.48C60.5957 441.486 54.6712 438.523 50.2441 435.594C45.8822 432.599 43.6686 428.302 43.6035 422.703C43.6686 417.104 45.9147 412.807 50.3418 409.812ZM112.549 407.859C111.963 408.185 111.377 408.348 110.791 408.348C110.465 408.348 110.14 408.283 109.814 408.152C108.903 407.892 108.219 407.306 107.764 406.395C107.308 405.483 107.21 404.572 107.471 403.66C107.731 402.684 108.285 401.902 109.131 401.316C113.232 398.322 115.446 394.513 115.771 389.891C115.771 389.63 115.674 389.435 115.479 389.305C115.283 389.109 115.055 389.012 114.795 389.012C112.581 389.012 110.693 388.328 109.131 386.961C107.568 385.529 106.787 383.641 106.787 381.297C106.787 378.758 107.536 376.74 109.033 375.242C110.531 373.68 112.451 372.898 114.795 372.898C117.92 372.898 120.296 374.103 121.924 376.512C123.617 378.855 124.463 382.176 124.463 386.473C124.463 395.652 120.492 402.781 112.549 407.859ZM155.029 394.188H159.521H192.725C194.548 394.253 196.045 394.936 197.217 396.238C198.454 397.54 199.072 399.103 199.072 400.926C198.747 404.832 196.631 406.948 192.725 407.273H158.35C155.876 407.404 153.825 408.348 152.197 410.105C150.57 411.863 149.365 413.882 148.584 416.16C147.868 418.374 147.51 420.652 147.51 422.996C147.51 425.34 147.868 427.651 148.584 429.93C149.365 432.143 150.57 434.129 152.197 435.887C153.825 437.645 155.876 438.589 158.35 438.719H192.725C194.548 438.784 196.045 439.467 197.217 440.77C198.454 442.072 199.072 443.634 199.072 445.457C199.007 447.215 198.356 448.712 197.119 449.949C195.947 451.121 194.482 451.74 192.725 451.805H156.885H155.029C150.472 451.544 146.696 449.819 143.701 446.629C140.771 443.374 138.656 439.695 137.354 435.594C136.117 431.492 135.498 427.293 135.498 422.996C135.498 418.699 136.149 414.5 137.451 410.398C138.753 406.297 140.869 402.651 143.799 399.461C146.729 396.206 150.472 394.448 155.029 394.188ZM198.877 422.605C198.877 424.428 198.226 425.958 196.924 427.195C195.687 428.497 194.157 429.148 192.334 429.148H162.842C161.019 429.148 159.456 428.53 158.154 427.293C156.917 425.991 156.299 424.428 156.299 422.605C156.299 420.783 156.917 419.22 158.154 417.918C159.456 416.681 161.019 416.062 162.842 416.062H192.334C194.157 416.062 195.687 416.714 196.924 418.016C198.226 419.253 198.877 420.783 198.877 422.605ZM206.982 400.73C206.982 398.908 207.601 397.378 208.838 396.141C210.14 394.839 211.702 394.188 213.525 394.188H270.361C272.184 394.188 273.747 394.806 275.049 396.043C276.286 397.345 276.904 398.908 276.904 400.73C276.904 402.553 276.253 404.116 274.951 405.418C273.714 406.655 272.184 407.273 270.361 407.273H248.584V446.824C248.193 450.73 246.045 452.846 242.139 453.172C240.316 453.172 238.721 452.586 237.354 451.414C236.051 450.177 235.4 448.647 235.4 446.824V407.273H213.525C211.702 407.273 210.173 406.622 208.936 405.32C207.633 404.083 206.982 402.553 206.982 400.73ZM309.131 436.668C309.131 434.845 309.749 433.315 310.986 432.078C312.288 430.776 313.851 430.125 315.674 430.125H330.615L328.076 422.898C327.035 420.229 325.993 417.723 324.951 415.379C323.975 412.97 322.835 410.789 321.533 408.836C320.361 406.883 319.027 405.841 317.529 405.711C315.967 405.841 314.567 406.883 313.33 408.836C312.093 410.789 310.954 412.97 309.912 415.379C308.936 417.723 307.926 420.229 306.885 422.898L297.607 448.289C296.956 449.656 296.11 450.796 295.068 451.707C294.092 452.553 292.594 452.977 290.576 452.977C288.688 452.977 287.126 452.326 285.889 451.023C284.717 449.721 284.196 448.159 284.326 446.336C284.391 445.49 284.587 444.708 284.912 443.992L295.654 416.258C298.649 408.966 301.644 403.074 304.639 398.582C307.568 394.155 311.865 391.909 317.529 391.844C323.128 391.909 327.393 394.155 330.322 398.582C333.317 402.944 336.312 408.836 339.307 416.258L350.049 443.992C350.374 444.708 350.57 445.49 350.635 446.336C350.765 448.159 350.212 449.721 348.975 451.023C347.803 452.326 346.273 452.977 344.385 452.977C342.236 452.977 340.641 452.553 339.6 451.707C338.623 450.796 337.809 449.656 337.158 448.289L335.303 443.211H315.674C313.851 443.211 312.321 442.56 311.084 441.258C309.782 440.021 309.131 438.491 309.131 436.668Z" fill="black"/>
<rect width="362" height="362" rx="30" fill="black"/>
<path d="M113.005 123.812C116.416 123.939 119.321 125.202 121.72 127.602C124.12 129.875 125.383 132.717 125.509 136.127V228.959C124.752 236.537 120.584 240.642 113.005 241.273C109.469 241.273 106.375 240.137 103.722 237.863C101.196 235.464 99.9332 232.495 99.9332 228.959V136.127C100.059 132.59 101.386 129.686 103.912 127.412C106.438 125.012 109.469 123.812 113.005 123.812ZM145.402 157.156C153.864 151.473 165.295 145.726 179.693 139.916L210.763 126.654C212.153 126.023 213.668 125.644 215.31 125.518C218.847 125.265 221.878 126.339 224.404 128.738C226.93 131.012 228.193 133.98 228.193 137.643C228.193 141.811 227.309 144.905 225.541 146.926C223.899 148.82 221.752 150.399 219.099 151.662L192.576 161.703C187.397 163.724 182.472 165.745 177.798 167.766C173.252 169.66 169.084 171.87 165.295 174.396C161.505 176.67 159.485 179.259 159.232 182.164C159.485 184.943 161.505 187.532 165.295 189.932C169.084 192.458 173.252 194.731 177.798 196.752C182.472 198.646 187.397 200.604 192.576 202.625L222.13 213.424C224.783 214.687 226.93 216.329 228.572 218.35C230.34 220.244 231.224 223.275 231.224 227.443C231.224 231.106 229.961 234.137 227.435 236.537C224.909 238.811 221.878 239.821 218.341 239.568C216.699 239.442 215.184 239.063 213.795 238.432L179.693 224.412C165.295 218.602 153.801 212.855 145.212 207.172C136.75 201.362 132.456 193.026 132.33 182.164C132.456 171.302 136.813 162.966 145.402 157.156Z" fill="white"/>
<rect x="4" y="43" width="124.06" height="300" fill="black"/>
<path d="M274.057 265.672L265.634 254.777C263.305 251.764 263.305 246.896 265.634 243.882L283.435 220.856C284.51 219.388 285.167 217.456 285.167 215.37V146.369C285.167 144.282 284.569 142.351 283.435 140.883L265.634 117.856C263.305 114.843 263.305 109.975 265.634 106.962L274.057 96.0666C276.386 93.0531 280.149 93.0531 282.479 96.0666L307.268 128.133C308.343 129.601 309 131.533 309 133.619V228.197C309 230.283 308.403 232.215 307.268 233.683L282.479 265.749C280.149 268.763 276.386 268.763 274.057 265.672Z" fill="#FAFAFA"/>
<path d="M87.4008 265.749L62.6119 233.683C61.477 232.215 60.8797 230.283 60.8797 228.197V133.619C60.8797 131.533 61.5368 129.601 62.6119 128.133L87.4008 96.0666C89.7304 93.0531 93.4935 93.0531 95.8231 96.0666L104.245 106.962C106.575 109.975 106.575 114.843 104.245 117.856L86.4451 140.883C85.3102 142.351 84.7129 144.282 84.7129 146.369V215.37C84.7129 217.456 85.3699 219.388 86.4451 220.856L104.245 243.882C106.575 246.896 106.575 251.764 104.245 254.777L95.8231 265.672C93.4935 268.763 89.7304 268.763 87.4008 265.749V265.749Z" fill="#FAFAFA"/>
</svg>
